<?xml version="1.0" standalone="no"?>
<!DOCTYPE svg PUBLIC "-//W3C//DTD SVG 20010904//EN"
 "http://www.w3.org/TR/2001/REC-SVG-20010904/DTD/svg10.dtd">
<svg version="1.0" xmlns="http://www.w3.org/2000/svg"
 width="512.000000pt" height="512.000000pt" viewBox="0 0 512.000000 512.000000"
 preserveAspectRatio="xMidYMid meet">
<metadata>
Created by potrace 1.14, written by Peter Selinger 2001-2017
</metadata>
<g transform="translate(0.000000,512.000000) scale(0.100000,-0.100000)"
fill="#000000" stroke="none">
<path d="M0 2560 l0 -2560 2560 0 2560 0 0 2560 0 2560 -2560 0 -2560 0 0
-2560z m1586 400 c6 0 15 -16 18 -35 4 -19 11 -35 16 -35 6 0 -3 -18 -18 -39
-15 -21 -29 -37 -31 -35 -3 2 -15 -3 -29 -12 -13 -8 -30 -13 -38 -10 -12 5
-14 -25 -14 -184 l0 -190 -330 0 -330 0 0 210 0 209 311 3 c171 2 312 1 314
-2 2 -4 -5 -11 -16 -18 -11 -7 -19 -8 -19 -2 0 6 -102 10 -290 10 l-290 0 0
-200 0 -200 320 0 321 0 -3 199 c-3 196 -3 198 17 189 47 -21 114 37 101 87
-16 63 -88 86 -133 43 -13 -12 -23 -27 -23 -35 0 -7 -7 -13 -15 -13 -13 0 -12
4 5 22 18 20 24 32 22 49 -1 3 13 6 30 7 17 0 35 5 41 11 6 6 17 3 30 -10 11
-10 26 -19 33 -19z m-668 13 c-10 -2 -28 -2 -40 0 -13 2 -5 4 17 4 22 1 32 -1
23 -4z m49 1 c-3 -3 -12 -4 -19 -1 -8 3 -5 6 6 6 11 1 17 -2 13 -5z m-32 -24
c3 -5 1 -10 -4 -10 -6 0 -11 5 -11 10 0 6 2 10 4 10 3 0 8 -4 11 -10z m163
-18 c-10 -2 -18 -8 -18 -14 0 -5 7 -7 16 -4 8 3 12 2 9 -4 -9 -15 -25 -12 -32
6 -7 18 15 36 32 26 6 -4 3 -8 -7 -10z m460 -4 c7 -7 12 -21 11 -32 0 -20 0
-20 -9 0 -12 30 -26 37 -57 29 -23 -5 -25 -9 -20 -43 5 -25 3 -32 -3 -22 -25
39 -4 80 40 80 14 0 31 -5 38 -12z m767 -181 c112 -185 122 -199 133 -179 4 7
52 89 107 182 l100 170 58 0 57 0 -2 -297 -3 -298 -60 0 -60 0 -3 168 c-1 92
-6 167 -10 167 -4 -1 -43 -62 -88 -138 -82 -139 -105 -161 -139 -132 -7 6 -48
69 -92 141 l-78 130 -5 -168 -5 -168 -62 -3 -63 -3 0 301 0 301 57 -3 57 -3
101 -168z m-885 123 c0 -5 -2 -10 -4 -10 -3 0 -8 5 -11 10 -3 6 -1 10 4 10 6
0 11 -4 11 -10z m2702 -42 l3 -53 58 -3 58 -3 -3 -47 -3 -47 -55 -5 -55 -5 0
-108 c0 -97 2 -110 20 -124 13 -9 32 -13 56 -9 35 6 38 4 53 -34 20 -51 21
-45 -14 -60 -44 -18 -153 -9 -187 16 -51 37 -63 77 -63 207 l0 117 -35 0 -35
0 0 50 0 50 35 0 35 0 0 55 0 55 64 0 65 0 3 -52z m-3340 -189 c-2 -166 1
-235 9 -245 10 -12 9 -13 -5 -8 -14 5 -16 32 -16 238 0 193 3 246 14 246 1 0
0 -104 -2 -231z m748 211 c-8 -6 -24 -9 -35 -9 l-20 1 20 5 c11 3 24 9 29 14
5 5 12 6 15 3 3 -3 -1 -9 -9 -14z m-674 -87 l-1 -48 285 0 285 0 -1 48 c0 27
3 44 9 38 4 -4 7 -28 5 -52 l-3 -44 -297 -3 -298 -2 0 55 c0 30 4 55 8 55 5 0
8 -21 8 -47z m2312 16 c96 -20 171 -113 172 -211 l0 -48 -170 0 c-189 0 -198
-4 -142 -60 41 -41 105 -49 168 -21 l48 21 32 -31 c18 -17 30 -37 27 -45 -2
-7 -28 -25 -56 -39 -39 -19 -66 -25 -119 -25 -136 0 -233 64 -258 171 -34 139
42 260 180 289 51 11 64 11 118 -1z m582 -11 c68 -25 130 -123 130 -204 l0
-44 -167 -2 c-184 -3 -195 -8 -145 -57 41 -42 104 -50 168 -22 l48 21 33 -32
c18 -17 33 -35 33 -40 0 -4 -21 -19 -46 -34 -93 -55 -251 -41 -330 29 -109 95
-89 288 38 371 51 34 168 41 238 14z m-2114 -41 c4 -4 -11 -7 -34 -7 -23 0
-42 4 -42 9 0 11 65 9 76 -2z m54 3 c0 -5 -5 -10 -11 -10 -5 0 -7 5 -4 10 3 6
8 10 11 10 2 0 4 -4 4 -10z m-12 -27 c-10 -2 -26 -2 -35 0 -10 3 -2 5 17 5 19
0 27 -2 18 -5z m-823 -70 l0 -48 80 0 80 0 -1 48 c0 26 4 47 8 47 5 0 8 -24 6
-52 l-3 -53 -90 0 -90 0 -3 53 c-2 28 1 52 5 52 4 0 8 -21 8 -47z m210 0 l0
-48 80 0 80 0 3 33 c2 18 -3 40 -10 49 -11 14 -11 15 2 11 19 -6 26 -74 9 -94
-8 -10 -35 -14 -95 -14 l-84 0 0 55 c0 30 3 55 8 55 4 0 7 -21 7 -47z m207 38
c-8 -5 -12 -23 -10 -47 l3 -39 80 0 80 0 -1 48 c0 26 4 47 8 47 5 0 8 -24 6
-52 l-3 -53 -90 0 -90 0 -3 53 c-3 45 0 52 15 52 14 0 15 -2 5 -9z m308 -55
c0 -8 -5 -18 -12 -22 -7 -5 -9 -2 -5 9 4 10 0 17 -11 20 -12 3 -11 5 6 6 13 1
22 -5 22 -13z m-728 -118 c3 -27 2 -48 -3 -48 -5 0 -9 23 -9 52 0 62 5 60 12
-4z m278 2 c0 -27 -3 -50 -7 -50 -5 0 -6 22 -5 50 5 65 12 65 12 0z m310 6 c0
-25 -3 -47 -8 -49 -4 -3 -7 17 -7 44 0 27 3 49 8 49 4 0 7 -20 7 -44z m177
-28 c-2 -13 -4 -5 -4 17 -1 22 1 32 4 23 2 -10 2 -28 0 -40z m-447 -18 c0 -5
-2 -10 -4 -10 -3 0 -8 5 -11 10 -3 6 -1 10 4 10 6 0 11 -4 11 -10z m340 -59
c0 -5 -7 -12 -16 -15 -14 -5 -15 -4 -4 9 14 17 20 19 20 6z m-397 -31 c-3 -11
-7 -20 -8 -20 -1 0 -5 9 -8 20 -3 12 0 20 8 20 8 0 11 -8 8 -20z m81 10 c-8
-8 -8 -25 -1 -55 8 -37 14 -44 36 -47 20 -2 26 -9 28 -28 1 -22 1 -22 -4 -2
-4 21 -8 22 -113 22 -95 0 -109 -2 -113 -17 -4 -16 -5 -16 -6 -1 -2 26 14 30
95 29 83 -1 85 1 60 72 -13 35 -13 37 7 37 15 0 18 -3 11 -10z m384 -37 c-49
-2 -127 -2 -175 0 -49 1 -9 3 87 3 96 0 136 -2 88 -3z m-481 -25 c-3 -8 -6 -5
-6 6 -1 11 2 17 5 13 3 -3 4 -12 1 -19z m562 -84 c-9 -11 -45 -14 -170 -14
-87 0 -160 3 -162 8 -3 4 70 7 161 7 l167 0 5 50 4 50 4 -43 c2 -24 -2 -50 -9
-58z m-149 82 c0 -3 -4 -8 -10 -11 -5 -3 -10 -1 -10 4 0 6 5 11 10 11 6 0 10
-2 10 -4z m-73 -17 c-18 -10 -18 -11 0 -25 16 -13 15 -13 -10 -2 -27 11 -27
13 -11 25 10 7 23 13 28 13 6 0 3 -5 -7 -11z m128 -8 c3 -6 -4 -15 -15 -21
-19 -10 -20 -10 -8 9 15 24 15 24 23 12z m-84 -28 c-12 -20 -14 -14 -5 12 4 9
9 14 11 11 3 -2 0 -13 -6 -23z"/>
<path d="M3076 2675 c-34 -18 -55 -43 -56 -67 0 -16 11 -18 103 -18 57 0 106
3 110 6 12 12 -23 64 -53 79 -37 19 -67 19 -104 0z"/>
<path d="M3620 2679 c-30 -12 -59 -47 -60 -71 0 -16 12 -18 103 -18 57 0 107
3 110 6 12 13 -28 67 -60 80 -37 16 -58 17 -93 3z"/>
</g>
</svg>
